<svg fill="none" xmlns="http://www.w3.org/2000/svg" viewBox="0 0 16 16"><g clipPath="url(#a)"><path fillRule="evenodd" clipRule="evenodd" d="M10.27 14.1a6.5 6.5 0 0 0 3.67-3.45q-1.24.21-2.7.34-.31 1.83-.97 3.1M8 16A8 8 0 1 0 8 0a8 8 0 0 0 0 16m.48-1.52a7 7 0 0 1-.96 0H7.5a4 4 0 0 1-.84-1.32q-.38-.89-.63-2.08a40 40 0 0 1-.31-4.08 40 40 0 0 1 .3-4.08q.26-1.2.64-2.08a4 4 0 0 1 .84-1.32h.02a7 7 0 0 1 .96 0h.02a4 4 0 0 1 .84 1.32q.38.89.63 2.08a40 40 0 0 1 .31 4.08 40 40 0 0 1-.3 4.08q-.26 1.2-.64 2.08a4 4 0 0 1-.84 1.32M5.73 14.1a4 4 0 0 1-.97-3.11q-1.46-.13-2.7-.34a6.5 6.5 0 0 0 3.67 3.45m-.97-9.09q1.44-.13 2.7-.35a4 4 0 0 1 1-3.13 6.5 6.5 0 0 0-3.7 3.48m6.48-3.48a4 4 0 0 1 1 3.13q1.26.22 2.7.35a6.5 6.5 0 0 0-3.7-3.48" fill="#000"/></g><defs><clipPath id="a"><path fill="#fff" d="M0 0h16v16H0z"/></clipPath></defs></svg>